<svg xmlns="http://www.w3.org/2000/svg" width="61" height="60" viewBox="0 0 61 60">
    <g fill="none" fill-rule="evenodd">
        <path fill="#FFF" d="M9.46 0h42a9.04 9.04 0 0 1 9.04 8.88v42a9.04 9.04 0 0 1-9.06 8.96h-42A8.98 8.98 0 0 1 .5 50.86v-42A8.96 8.96 0 0 1 9.46 0z"/>
        <g fill="#689F38">
            <path d="M31.88 7.5H27.1v12.9a8.68 8.68 0 0 1 4.78 1.46V7.5z"/>
            <path d="M28.36 43.7a5.2 5.2 0 0 1-4.86 2.68 6 6 0 0 1-3.86-1.26 8 8 0 0 1-2.42-3.52 13.54 13.54 0 0 1-.84-4.52 14 14 0 0 1 .84-4.6 7.36 7.36 0 0 1 2.44-3.44 5.7 5.7 0 0 1 3.86-1.34 5.62 5.62 0 0 1 3.68 1.26 8.36 8.36 0 0 1 2.18 3.44 16.26 16.26 0 0 1 .68 4.7 12.3 12.3 0 0 1-1.68 6.62l-.02-.02zm8.46-14a13.18 13.18 0 0 0-4.2-5.7A10.48 10.48 0 0 0 26 21.82a12 12 0 0 0-5.2 1.08 9.18 9.18 0 0 0-3.86 3.26V7.5H9v44.74s7.2.84 7.46-3.78v-.58h.04v-.16.28c.245.468.526.916.84 1.34a8.8 8.8 0 0 0 2.94 2 14 14 0 0 0 5.7.92c2.37.106 4.705-.6 6.62-2a13.68 13.68 0 0 0 4.18-5.7 21.042 21.042 0 0 0 1.42-7.46 20.681 20.681 0 0 0-1.38-7.48v.08z"/>
            <path d="M50.5 29.62a11.8 11.8 0 0 0-16-6.78l-.82.44a16 16 0 0 1 2.54 2.92 7.62 7.62 0 0 1 2.56-.4c6 0 7.88 6.4 7.88 11.3s-2 11.2-7.88 11.2a7.88 7.88 0 0 1-2.76-.46 15.64 15.64 0 0 1-2.92 3.12l.9.46a14 14 0 0 0 5.7.92c2.37.106 4.705-.6 6.62-2a13.68 13.68 0 0 0 4.18-5.8 21.04 21.04 0 0 0 1.42-7.46 20.68 20.68 0 0 0-1.42-7.46z"/>
        </g>
    </g>
</svg>
